<svg preserveAspectRatio="none" width="100%" height="100%" overflow="visible" style="display: block;" viewBox="0 0 72.38 72.38" fill="none" xmlns="http://www.w3.org/2000/svg">
<g id="Group">
<path id="Vector" d="M72.38 36.19C72.38 46.18 68.33 55.23 61.78 61.78C55.23 68.33 46.19 72.38 36.19 72.38C26.19 72.38 17.15 68.33 10.6 61.78C9.90004 61.08 9.24004 60.36 8.60004 59.61C6.65004 57.32 4.98002 54.78 3.65002 52.05C1.31002 47.26 0 41.88 0 36.19C0 16.2 16.2 0 36.19 0C46.18 0 55.23 4.05001 61.78 10.6C68.33 17.15 72.38 26.19 72.38 36.19Z" fill="var(--fill-0, white)"/>
<path id="Vector_2" d="M59.71 43.04L53.45 49.3L37.41 33.26C36.73 32.58 35.64 32.58 34.97 33.26L8.60999 59.62C6.65999 57.33 4.99003 54.79 3.66003 52.06L30.09 25.63C33.46 22.26 38.93 22.26 42.3 25.63L59.72 43.05L59.71 43.04Z" fill="var(--fill-0, black)"/>
</g>
</svg>
