<svg preserveAspectRatio="none" width="100%" height="100%" overflow="visible" style="display: block;" viewBox="0 0 514.3 91.74" fill="none" xmlns="http://www.w3.org/2000/svg">
<g id="Group">
<g id="Group_2">
<path id="Vector" d="M188.66 26.65C186.85 25.44 184.46 24.84 181.49 24.84C178.52 24.84 175.99 25.55 173.85 26.97C171.9 28.24 170.36 29.94 169.24 32.06C169.22 31.99 169.2 31.93 169.17 31.86C168.41 29.71 167.14 28.01 165.35 26.76C163.57 25.48 161.15 24.85 158.11 24.85C155.07 24.85 152.6 25.57 150.44 27.01C149.04 27.94 147.85 29.08 146.87 30.44V26.87C146.87 26.1 146.25 25.48 145.48 25.48H138.87C138.1 25.48 137.48 26.1 137.48 26.87V63.12H146.86V43.17C146.86 41.89 147 40.65 147.29 39.45C147.58 38.22 148.03 37.13 148.65 36.19C149.29 35.22 150.1 34.45 151.08 33.89C152.08 33.3 153.29 33 154.72 33C156.15 33 157.35 33.27 158.18 33.81C159.04 34.33 159.67 35.01 160.07 35.87C160.47 36.73 160.74 37.65 160.85 38.67C160.97 39.66 161.03 40.62 161.03 41.54V63.12H170.34V42.85C170.34 41.67 170.47 40.49 170.73 39.31C171.02 38.13 171.46 37.07 172.05 36.12C172.64 35.17 173.43 34.42 174.4 33.85C175.4 33.28 176.62 33 178.08 33C179.54 33 180.72 33.26 181.58 33.78C182.44 34.28 183.07 34.94 183.47 35.76C183.87 36.56 184.14 37.47 184.25 38.49C184.37 39.48 184.43 40.47 184.43 41.47V63.12H193.81V38.74C193.81 36.07 193.39 33.7 192.56 31.62C191.75 29.52 190.44 27.86 188.63 26.66L188.66 26.65Z" fill="var(--fill-0, white)"/>
<g id="Group_3">
<path id="Vector_2" d="M198.47 63.11H207.75V26.86C207.75 26.09 207.13 25.47 206.36 25.47H199.86C199.09 25.47 198.47 26.09 198.47 26.86V63.11Z" fill="var(--fill-0, white)"/>
<path id="Vector_3" d="M206.35 9.26001H199.86C199.092 9.26001 198.47 9.88232 198.47 10.65V17.12C198.47 17.8877 199.092 18.51 199.86 18.51H206.35C207.118 18.51 207.74 17.8877 207.74 17.12V10.65C207.74 9.88232 207.118 9.26001 206.35 9.26001Z" fill="var(--fill-0, white)"/>
</g>
<path id="Vector_4" d="M295.62 34.2C293.91 31.27 291.53 28.98 288.49 27.32C285.45 25.67 281.93 24.84 277.93 24.84C273.93 24.84 270.42 25.67 267.37 27.32C264.33 28.98 261.94 31.26 260.2 34.2C258.49 37.1 257.63 40.47 257.63 44.3C257.63 48.13 258.49 51.48 260.2 54.43C261.93 57.38 264.32 59.7 267.37 61.38C270.42 63.04 273.94 63.86 277.93 63.86C281.92 63.86 285.45 63.04 288.49 61.38C291.53 59.7 293.91 57.39 295.62 54.43C297.36 51.48 298.23 48.1 298.23 44.3C298.23 40.5 297.36 37.11 295.62 34.2ZM287.38 50.61C286.48 52.38 285.22 53.76 283.6 54.76C281.98 55.75 280.09 56.25 277.92 56.25C275.75 56.25 273.89 55.75 272.25 54.76C270.63 53.77 269.37 52.38 268.47 50.61C267.57 48.81 267.11 46.71 267.11 44.3C267.11 41.89 267.57 39.81 268.47 38.06C269.37 36.29 270.63 34.92 272.25 33.95C273.89 32.98 275.78 32.5 277.92 32.5C280.06 32.5 281.98 32.98 283.6 33.95C285.22 34.92 286.48 36.29 287.38 38.06C288.29 39.81 288.74 41.89 288.74 44.3C288.74 46.71 288.29 48.81 287.38 50.61Z" fill="var(--fill-0, white)"/>
<g id="Group_4">
<path id="Vector_5" d="M250.38 34.2C248.67 31.27 246.29 28.98 243.25 27.32C240.2 25.67 236.68 24.84 232.69 24.84C228.7 24.84 225.18 25.67 222.13 27.32C219.09 28.98 216.7 31.26 214.96 34.2C213.25 37.1 212.39 40.47 212.39 44.3C212.39 48.13 213.25 51.48 214.96 54.43C216.69 57.38 219.08 59.7 222.13 61.38C225.18 63.04 228.69 63.86 232.69 63.86C236.69 63.86 240.2 63.04 243.25 61.38C246.29 59.7 248.67 57.39 250.38 54.43C252.12 51.48 252.99 48.1 252.99 44.3C252.99 40.5 252.12 37.11 250.38 34.2ZM242.14 50.61C241.24 52.38 239.98 53.76 238.36 54.76C236.74 55.75 234.85 56.25 232.69 56.25C230.53 56.25 228.66 55.75 227.01 54.76C225.39 53.77 224.13 52.38 223.23 50.61C222.32 48.81 221.87 46.71 221.87 44.3C221.87 41.89 222.32 39.81 223.23 38.06C224.13 36.29 225.39 34.92 227.01 33.95C228.65 32.98 230.55 32.5 232.69 32.5C234.83 32.5 236.75 32.98 238.36 33.95C239.98 34.92 241.24 36.29 242.14 38.06C243.04 39.81 243.5 41.89 243.5 44.3C243.5 46.71 243.04 48.81 242.14 50.61Z" fill="var(--fill-0, white)"/>
<path id="Vector_6" d="M251.37 72.39H244.96C244.16 72.39 243.5 73.01 243.43 73.81C243.27 75.55 242.84 77.1 242.15 78.48C241.25 80.25 239.99 81.63 238.37 82.63C236.75 83.63 234.87 84.12 232.7 84.12C230.53 84.12 228.67 83.63 227.03 82.63C225.41 81.64 224.15 80.25 223.25 78.48C222.56 77.1 222.13 75.55 221.97 73.81C221.9 73.01 221.24 72.39 220.44 72.39H214.02C213.13 72.39 212.4 73.15 212.47 74.03C212.71 77.09 213.54 79.85 214.97 82.31C216.71 85.26 219.1 87.58 222.15 89.26C225.19 90.92 228.71 91.74 232.71 91.74C236.71 91.74 240.22 90.92 243.27 89.26C246.32 87.58 248.7 85.27 250.41 82.31C251.86 79.85 252.7 77.09 252.94 74.03C253.01 73.14 252.29 72.39 251.39 72.39H251.37Z" fill="var(--fill-0, white)"/>
</g>
<path id="Vector_7" d="M332.06 43.98C330.58 43.15 328.96 42.49 327.17 42C325.41 41.5 323.66 41.11 321.93 40.83C320.1 40.52 318.48 40.18 317.08 39.8C315.68 39.4 314.58 38.9 313.8 38.31C313.02 37.72 312.62 36.95 312.62 36.01C312.62 35.02 313 34.25 313.76 33.71C314.52 33.14 315.47 32.75 316.61 32.54C317.75 32.3 318.86 32.19 319.93 32.19C321.14 32.19 322.3 32.36 323.39 32.69C324.48 33.02 325.38 33.53 326.07 34.21C326.76 34.9 327.1 35.78 327.1 36.87V37.33H336.38V36.76C336.38 34.26 335.61 32.12 334.06 30.35C332.54 28.58 330.53 27.22 328.03 26.28C325.53 25.33 322.83 24.86 319.93 24.86C317.03 24.86 314.14 25.3 311.62 26.17C309.12 27.04 307.12 28.33 305.63 30.03C304.15 31.71 303.42 33.79 303.42 36.27C303.42 38.14 303.85 39.72 304.7 41.02C305.58 42.32 306.73 43.41 308.16 44.28C309.61 45.15 311.22 45.85 312.98 46.37C314.74 46.89 316.52 47.3 318.33 47.61C321.61 48.13 324.01 48.71 325.54 49.35C327.09 49.99 327.86 51.05 327.86 52.54C327.86 53.46 327.49 54.22 326.75 54.81C326.04 55.4 325.08 55.84 323.9 56.12C322.73 56.4 321.49 56.55 320.15 56.55C317.7 56.55 315.76 56.17 314.33 55.42C312.93 54.64 312.22 53.48 312.22 51.95V51.31H302.87V52.12C302.87 54.06 303.32 55.77 304.23 57.26C305.16 58.72 306.41 59.95 307.98 60.95C309.57 61.94 311.38 62.69 313.4 63.18C315.45 63.68 317.6 63.92 319.86 63.92C322.12 63.92 324.17 63.7 326.21 63.25C328.26 62.8 330.09 62.1 331.7 61.16C333.34 60.19 334.64 58.97 335.59 57.51C336.54 56.05 337.02 54.27 337.02 52.19C337.02 50.23 336.56 48.59 335.63 47.26C334.73 45.91 333.54 44.83 332.06 44V43.98Z" fill="var(--fill-0, white)"/>
<path id="Vector_8" d="M375.84 29.66C374.27 28.2 372.33 27.03 370.02 26.15C367.71 25.28 365.06 24.84 362.06 24.84C358.06 24.84 354.53 25.63 351.46 27.21C348.39 28.77 345.99 31 344.25 33.91C342.51 36.82 341.65 40.24 341.65 44.19C341.65 48.14 342.52 51.62 344.25 54.57C345.99 57.52 348.39 59.81 351.46 61.44C354.53 63.07 358.06 63.88 362.06 63.88C365.1 63.88 367.78 63.44 370.09 62.57C372.42 61.7 374.37 60.53 375.94 59.06C377.51 57.6 378.7 55.99 379.51 54.24C380.32 52.47 380.72 50.71 380.72 48.96H371.37C371.28 50.26 370.88 51.46 370.19 52.57C369.5 53.66 368.48 54.53 367.12 55.19C365.79 55.83 364.06 56.15 361.95 56.15C359.95 56.15 358.13 55.69 356.49 54.77C354.87 53.82 353.59 52.47 352.64 50.69C351.69 48.89 351.21 46.72 351.21 44.17C351.21 41.62 351.69 39.45 352.64 37.72C353.62 36 354.91 34.71 356.53 33.86C358.17 32.99 359.98 32.55 361.95 32.55C363.8 32.55 365.39 32.85 366.7 33.44C368.01 34.03 369.06 34.82 369.84 35.81C370.62 36.78 371.11 37.87 371.3 39.07C371.32 39.21 371.35 39.35 371.37 39.5C371.39 39.64 371.41 39.77 371.41 39.89H380.72V39.61C380.72 37.89 380.3 36.16 379.47 34.44C378.64 32.69 377.42 31.1 375.83 29.66H375.84Z" fill="var(--fill-0, white)"/>
<path id="Vector_9" d="M423.37 34.2C421.66 31.27 419.27 28.98 416.24 27.32C413.19 25.67 409.67 24.84 405.67 24.84C401.67 24.84 398.16 25.67 395.11 27.32C392.07 28.98 389.68 31.26 387.94 34.2C386.23 37.1 385.37 40.47 385.37 44.3C385.37 48.13 386.23 51.48 387.94 54.43C389.68 57.38 392.07 59.7 395.11 61.38C398.15 63.04 401.67 63.86 405.67 63.86C409.67 63.86 413.19 63.04 416.24 61.38C419.28 59.7 421.66 57.39 423.37 54.43C425.1 51.48 425.98 48.1 425.98 44.3C425.98 40.5 425.11 37.11 423.37 34.2ZM415.13 50.61C414.22 52.38 412.96 53.76 411.35 54.76C409.73 55.75 407.84 56.25 405.67 56.25C403.5 56.25 401.64 55.75 400 54.76C398.38 53.77 397.12 52.38 396.22 50.61C395.32 48.81 394.87 46.71 394.87 44.3C394.87 41.89 395.32 39.81 396.22 38.06C397.13 36.29 398.39 34.92 400 33.95C401.64 32.98 403.54 32.5 405.67 32.5C407.8 32.5 409.73 32.98 411.35 33.95C412.97 34.92 414.23 36.29 415.13 38.06C416.02 39.81 416.48 41.89 416.48 44.3C416.48 46.71 416.02 48.81 415.13 50.61Z" fill="var(--fill-0, white)"/>
<path id="Vector_10" d="M459.97 10.65V29.94C458.88 28.8 457.65 27.83 456.26 27.04C453.74 25.58 450.99 24.84 448.02 24.84C445.05 24.84 442.11 25.59 439.45 27.07C436.81 28.56 434.67 30.74 433.02 33.63C431.4 36.51 430.6 40.03 430.6 44.19C430.6 48.35 431.4 52.06 432.98 55C434.57 57.93 436.7 60.15 439.33 61.66C442 63.15 444.89 63.89 448.01 63.89C451.13 63.89 453.9 63.11 456.39 61.55C457.73 60.71 458.91 59.71 459.96 58.56V63.1H469.38V10.64C469.38 9.86998 468.76 9.25 467.99 9.25H461.34C460.57 9.25 459.95 9.86998 459.95 10.64L459.97 10.65ZM459.97 45.99C459.97 47.88 459.51 49.56 458.58 51.02C457.68 52.46 456.49 53.6 455.02 54.42C453.54 55.24 451.94 55.66 450.2 55.66C447.47 55.66 445.13 54.72 443.21 52.86C441.28 51 440.33 48.1 440.33 44.18C440.33 40.26 441.29 37.35 443.21 35.53C445.14 33.69 447.47 32.76 450.2 32.76C451.87 32.76 453.44 33.16 454.91 33.97C456.41 34.75 457.63 35.83 458.55 37.23C459.51 38.62 459.98 40.25 459.98 42.12V45.98L459.97 45.99Z" fill="var(--fill-0, white)"/>
<path id="Vector_11" d="M511.88 34.23C510.26 31.28 507.96 28.98 504.96 27.32C501.99 25.67 498.45 24.84 494.36 24.84C490.27 24.84 486.87 25.67 483.8 27.32C480.73 28.95 478.32 31.23 476.59 34.16C474.88 37.09 474.03 40.5 474.03 44.4C474.03 48.3 474.88 51.58 476.56 54.53C478.28 57.48 480.65 59.79 483.7 61.44C486.74 63.1 490.3 63.92 494.37 63.92C497.36 63.92 500.03 63.57 502.36 62.86C504.71 62.13 506.71 61.15 508.36 59.95C510 58.72 511.27 57.36 512.17 55.88C513.1 54.36 513.63 52.82 513.78 51.24H504.43C504.36 51.86 504.13 52.47 503.72 53.08C503.35 53.69 502.76 54.27 501.97 54.81C501.21 55.33 500.22 55.75 499.01 56.05C497.8 56.35 496.36 56.51 494.69 56.51C492.24 56.51 490.16 56.02 488.44 55.05C486.76 54.06 485.47 52.64 484.59 50.8C484.1 49.74 483.74 48.57 483.53 47.29H514.17C514.21 47.03 514.25 46.62 514.27 46.05C514.29 45.49 514.3 44.95 514.3 44.46C514.3 40.56 513.5 37.15 511.87 34.22L511.88 34.23ZM483.6 40.68C483.83 39.6 484.17 38.61 484.63 37.71C485.55 35.91 486.85 34.54 488.51 33.6C490.2 32.63 492.19 32.14 494.47 32.14C496.75 32.14 498.68 32.59 500.18 33.49C501.68 34.36 502.8 35.52 503.54 36.96C504.14 38.12 504.48 39.37 504.59 40.68H483.6Z" fill="var(--fill-0, white)"/>
<path id="Vector_12" d="M119.61 11.69L119.25 10.32C119.09 9.71001 118.54 9.28 117.91 9.28H105.99C105.36 9.28 104.81 9.71001 104.65 10.32L104.3 11.68L90.94 63.11H100.61L103.72 50.39H120.12L123.2 63.11H132.87L119.62 11.69H119.61ZM105.54 42.91L111.95 16.69L118.3 42.91H105.54Z" fill="var(--fill-0, white)"/>
</g>
<path id="Vector_13" d="M72.38 36.19C72.38 46.18 68.33 55.23 61.78 61.78C55.23 68.33 46.19 72.38 36.19 72.38C26.19 72.38 17.15 68.33 10.6 61.78C9.90004 61.08 9.24004 60.36 8.60004 59.61C6.65004 57.32 4.98002 54.78 3.65002 52.05C1.31002 47.26 0 41.88 0 36.19C0 16.2 16.2 0 36.19 0C46.18 0 55.23 4.05001 61.78 10.6C68.33 17.15 72.38 26.19 72.38 36.19Z" fill="var(--fill-0, white)"/>
<path id="Vector_14" d="M59.71 43.04L53.45 49.3L37.41 33.26C36.73 32.58 35.64 32.58 34.97 33.26L8.60999 59.62C6.65999 57.33 4.99003 54.79 3.66003 52.06L30.09 25.63C33.46 22.26 38.93 22.26 42.3 25.63L59.72 43.05L59.71 43.04Z" fill="var(--fill-0, black)"/>
</g>
</svg>
