<svg viewBox="0 0 3847 615" fill="none" xmlns="http://www.w3.org/2000/svg">
  <path d="M519.379 259.689C519.379 331.43 490.289 396.352 443.321 443.32C396.352 490.365 331.43 519.379 259.69 519.379C187.949 519.379 123.027 490.289 76.0587 443.32C71.0589 438.321 66.2862 433.169 61.7408 427.791C47.7261 411.352 35.7567 393.17 26.2115 373.55C9.39383 339.233 0 300.597 0 259.765C0 116.285 116.285 0 259.766 0C331.506 0 396.428 29.0901 443.397 76.0585C490.441 123.027 519.455 187.949 519.455 259.689H519.379Z" fill="#7F56D9"/>
  <path d="M428.473 308.856L383.55 353.779L268.402 238.631C263.553 233.783 255.675 233.783 250.902 238.631L61.665 427.868C47.6503 411.429 35.6809 393.248 26.1357 373.627L215.828 183.936C239.993 159.77 279.235 159.77 303.477 183.936L428.473 308.932V308.856Z" fill="white"/>
  <path d="M918.485 20.9228L915.814 10.7578C914.627 6.23179 910.547 3.04126 905.872 3.04126H817.429C812.755 3.04126 808.674 6.23179 807.487 10.7578L804.89 20.8485L705.763 402.444H777.511L800.587 308.065H922.269L945.122 402.444H1016.87L918.56 20.9228H918.485ZM814.09 252.566L861.651 58.0213L908.766 252.566H814.09Z" fill="#181D2F"/>
  <path d="M1430.82 131.922C1417.39 122.944 1399.65 118.492 1377.62 118.492C1355.58 118.492 1336.81 123.76 1320.93 134.296C1306.46 143.719 1295.03 156.333 1286.72 172.062C1286.58 171.543 1286.43 171.098 1286.21 170.578C1280.57 154.626 1271.14 142.013 1257.86 132.738C1244.66 123.241 1226.7 118.566 1204.14 118.566C1181.59 118.566 1163.26 123.909 1147.23 134.593C1136.85 141.493 1128.02 149.952 1120.75 160.043V133.554C1120.75 127.841 1116.15 123.241 1110.43 123.241H1061.39C1055.68 123.241 1051.08 127.841 1051.08 133.554V402.518H1120.67V254.495C1120.67 244.998 1121.71 235.798 1123.86 226.894C1126.01 217.768 1129.35 209.68 1133.95 202.706C1138.7 195.509 1144.71 189.795 1151.98 185.64C1159.4 181.263 1168.38 179.037 1178.99 179.037C1189.6 179.037 1198.5 181.04 1204.66 185.047C1211.04 188.905 1215.72 193.951 1218.69 200.331C1221.65 206.712 1223.66 213.538 1224.47 221.107C1225.36 228.452 1225.81 235.575 1225.81 242.401V402.518H1294.89V252.121C1294.89 243.366 1295.85 234.61 1297.78 225.855C1299.93 217.1 1303.2 209.235 1307.57 202.186C1311.95 195.138 1317.81 189.573 1325.01 185.344C1332.43 181.115 1341.48 179.037 1352.32 179.037C1363.15 179.037 1371.9 180.966 1378.28 184.824C1384.67 188.534 1389.34 193.431 1392.31 199.515C1395.28 205.451 1397.28 212.203 1398.09 219.771C1398.99 227.117 1399.43 234.462 1399.43 241.882V402.518H1469.03V221.626C1469.03 201.815 1465.91 184.231 1459.75 168.798C1453.74 153.216 1444.02 140.9 1430.59 131.996L1430.82 131.922Z" fill="#181D2F"/>
  <path d="M1503.61 402.443H1572.46V133.479C1572.46 127.766 1567.86 123.166 1562.15 123.166H1513.92C1508.21 123.166 1503.61 127.766 1503.61 133.479V402.443Z" fill="#181D2F"/>
  <path d="M1562.07 2.89282H1513.92C1508.22 2.89282 1503.61 7.51016 1503.61 13.2061V61.2115C1503.61 66.9075 1508.22 71.525 1513.92 71.525H1562.07C1567.77 71.525 1572.39 66.9075 1572.39 61.2115V13.2061C1572.39 7.51016 1567.77 2.89282 1562.07 2.89282Z" fill="#181D2F"/>
  <path d="M1888.76 187.941C1876.07 166.201 1858.41 149.21 1835.86 136.893C1813.23 124.651 1787.11 118.492 1757.51 118.492C1727.9 118.492 1701.78 124.651 1679.15 136.893C1656.6 149.21 1638.86 166.127 1625.95 187.941C1613.27 209.458 1606.89 234.462 1606.89 262.88C1606.89 291.297 1613.27 316.153 1625.95 338.041C1638.79 359.929 1656.52 377.143 1679.15 389.608C1701.78 401.925 1727.83 408.009 1757.51 408.009C1787.18 408.009 1813.23 401.925 1835.86 389.608C1858.41 377.143 1876.07 360.004 1888.76 338.041C1901.67 316.153 1908.13 291.075 1908.13 262.88C1908.13 234.685 1901.67 209.532 1888.76 187.941ZM1827.62 309.698C1820.94 322.831 1811.6 333.07 1799.58 340.49C1787.56 347.835 1773.53 351.545 1757.51 351.545C1741.48 351.545 1727.6 347.835 1715.36 340.49C1703.34 333.144 1693.99 322.831 1687.32 309.698C1680.56 296.343 1677.22 280.761 1677.22 262.88C1677.22 244.998 1680.56 229.565 1687.32 216.581C1693.99 203.448 1703.34 193.283 1715.36 186.086C1727.53 178.889 1741.63 175.327 1757.51 175.327C1773.38 175.327 1787.63 178.889 1799.58 186.086C1811.6 193.283 1820.94 203.448 1827.62 216.581C1834.3 229.565 1837.71 244.998 1837.71 262.88C1837.71 280.761 1834.3 296.343 1827.62 309.698Z" fill="#181D2F"/>
  <path d="M1896.1 471.3H1848.54C1842.61 471.3 1837.71 475.9 1837.19 481.836C1836 494.746 1832.81 506.246 1827.69 516.486C1821.02 529.618 1811.67 539.858 1799.65 547.277C1787.63 554.697 1773.68 558.333 1757.58 558.333C1741.48 558.333 1727.68 554.697 1715.51 547.277C1703.49 539.932 1694.14 529.618 1687.46 516.486C1682.34 506.246 1679.15 494.746 1677.97 481.836C1677.45 475.9 1672.55 471.3 1666.61 471.3H1618.98C1612.37 471.3 1606.96 476.939 1607.48 483.468C1609.26 506.172 1615.42 526.651 1626.03 544.903C1638.94 566.791 1656.67 584.005 1679.3 596.47C1701.86 608.787 1727.97 614.871 1757.65 614.871C1787.33 614.871 1813.37 608.787 1836 596.47C1858.63 584.005 1876.29 566.865 1888.98 544.903C1899.74 526.651 1905.97 506.172 1907.75 483.468C1908.27 476.864 1902.93 471.3 1896.25 471.3H1896.1Z" fill="#181D2F"/>
  <path d="M2224.43 187.94C2211.74 166.201 2194.08 149.21 2171.53 136.893C2148.97 124.651 2122.85 118.492 2093.18 118.492C2063.5 118.492 2037.45 124.651 2014.82 136.893C1992.27 149.21 1974.53 166.127 1961.62 187.94C1948.94 209.458 1942.56 234.462 1942.56 262.879C1942.56 291.297 1948.94 316.153 1961.62 338.041C1974.46 359.929 1992.19 377.143 2014.82 389.608C2037.45 401.925 2063.57 408.009 2093.18 408.009C2122.78 408.009 2148.97 401.925 2171.53 389.608C2194.08 377.143 2211.74 360.003 2224.43 338.041C2237.34 316.153 2243.8 291.074 2243.8 262.879C2243.8 234.685 2237.34 209.532 2224.43 187.94ZM2163.29 309.698C2156.61 322.831 2147.26 333.07 2135.25 340.49C2123.23 347.835 2109.2 351.545 2093.1 351.545C2077 351.545 2063.2 347.835 2051.03 340.49C2039.01 333.144 2029.66 322.831 2022.98 309.698C2016.31 296.342 2012.89 280.761 2012.89 262.879C2012.89 244.998 2016.31 229.565 2022.98 216.581C2029.66 203.448 2039.01 193.283 2051.03 186.086C2063.2 178.888 2077.22 175.327 2093.1 175.327C2108.98 175.327 2123.23 178.888 2135.25 186.086C2147.26 193.283 2156.61 203.448 2163.29 216.581C2170.04 229.565 2173.38 244.998 2173.38 262.879C2173.38 280.761 2170.04 296.342 2163.29 309.698Z" fill="#181D2F"/>
  <path d="M2494.8 260.504C2483.82 254.345 2471.8 249.449 2458.51 245.813C2445.46 242.103 2432.47 239.209 2419.64 237.132C2406.06 234.832 2394.04 232.309 2383.65 229.489C2373.26 226.522 2365.1 222.812 2359.31 218.434C2353.53 214.057 2350.56 208.344 2350.56 201.369C2350.56 194.023 2353.38 188.31 2359.02 184.304C2364.66 180.074 2371.7 177.181 2380.16 175.623C2388.62 173.842 2396.86 173.026 2404.8 173.026C2413.77 173.026 2422.38 174.287 2430.47 176.736C2438.56 179.184 2445.23 182.968 2450.35 188.013C2455.47 193.133 2458 199.662 2458 207.75V211.163H2526.85V206.934C2526.85 188.385 2521.14 172.506 2509.64 159.373C2498.36 146.241 2483.45 136.15 2464.9 129.175C2446.35 122.127 2426.31 118.639 2404.8 118.639C2383.28 118.639 2361.84 121.904 2343.14 128.359C2324.59 134.814 2309.75 144.386 2298.7 156.999C2287.71 169.464 2282.3 184.897 2282.3 203.298C2282.3 217.173 2285.49 228.896 2291.79 238.542C2298.32 248.187 2306.86 256.275 2317.47 262.73C2328.22 269.185 2340.17 274.379 2353.23 278.237C2366.29 282.095 2379.5 285.137 2392.93 287.437C2417.26 291.296 2435.07 295.599 2446.42 300.348C2457.92 305.096 2463.64 312.961 2463.64 324.017C2463.64 330.843 2460.89 336.482 2455.4 340.859C2450.13 345.237 2443.01 348.502 2434.25 350.579C2425.57 352.657 2416.37 353.769 2406.43 353.769C2388.25 353.769 2373.86 350.95 2363.25 345.385C2352.86 339.598 2347.59 330.991 2347.59 319.639V314.89H2278.22V320.9C2278.22 335.294 2281.56 347.982 2288.31 359.038C2295.21 369.87 2304.48 378.996 2316.13 386.416C2327.93 393.762 2341.36 399.326 2356.35 402.962C2371.56 406.672 2387.51 408.453 2404.28 408.453C2421.05 408.453 2436.26 406.82 2451.39 403.482C2466.6 400.143 2480.18 394.949 2492.13 387.974C2504.29 380.777 2513.94 371.725 2520.99 360.893C2528.04 350.06 2531.6 336.853 2531.6 321.42C2531.6 306.877 2528.19 294.709 2521.29 284.841C2514.61 274.824 2505.78 266.811 2494.8 260.652V260.504Z" fill="#181D2F"/>
  <path d="M2819.64 154.255C2807.99 143.422 2793.59 134.741 2776.45 128.212C2759.31 121.757 2739.65 118.492 2717.39 118.492C2687.71 118.492 2661.52 124.354 2638.74 136.077C2615.96 147.652 2598.16 164.198 2585.25 185.789C2572.34 207.38 2565.96 232.756 2565.96 262.063C2565.96 291.371 2572.41 317.192 2585.25 339.08C2598.16 360.968 2615.96 377.959 2638.74 390.053C2661.52 402.147 2687.71 408.157 2717.39 408.157C2739.95 408.157 2759.83 404.893 2776.97 398.438C2794.26 391.982 2808.73 383.301 2820.38 372.394C2832.03 361.562 2840.85 349.616 2846.86 336.631C2852.87 323.498 2855.84 310.44 2855.84 297.455H2786.47C2785.8 307.101 2782.83 316.005 2777.71 324.241C2772.59 332.328 2765.03 338.783 2754.94 343.68C2745.07 348.429 2732.23 350.803 2716.58 350.803C2701.74 350.803 2688.23 347.39 2676.06 340.564C2664.04 333.515 2654.55 323.499 2647.5 310.291C2640.45 296.936 2636.89 280.835 2636.89 261.915C2636.89 242.995 2640.45 226.894 2647.5 214.058C2654.77 201.296 2664.34 191.725 2676.36 185.418C2688.53 178.963 2701.96 175.698 2716.58 175.698C2730.3 175.698 2742.1 177.924 2751.82 182.302C2761.54 186.679 2769.33 192.541 2775.12 199.886C2780.9 207.083 2784.54 215.171 2785.95 224.075C2786.1 225.113 2786.32 226.152 2786.47 227.265C2786.62 228.304 2786.77 229.268 2786.77 230.159H2855.84V228.081C2855.84 215.319 2852.73 202.483 2846.57 189.721C2840.41 176.737 2831.36 164.94 2819.56 154.255H2819.64Z" fill="#181D2F"/>
  <path d="M3172.29 187.94C3159.6 166.201 3141.87 149.21 3119.39 136.893C3096.76 124.651 3070.64 118.492 3040.96 118.492C3011.28 118.492 2985.24 124.651 2962.61 136.893C2940.05 149.21 2922.32 166.127 2909.41 187.94C2896.72 209.458 2890.34 234.462 2890.34 262.879C2890.34 291.297 2896.72 316.153 2909.41 338.041C2922.32 359.929 2940.05 377.143 2962.61 389.608C2985.17 401.925 3011.28 408.009 3040.96 408.009C3070.64 408.009 3096.76 401.925 3119.39 389.608C3141.94 377.143 3159.6 360.003 3172.29 338.041C3185.13 316.153 3191.66 291.074 3191.66 262.879C3191.66 234.685 3185.2 209.532 3172.29 187.94ZM3111.15 309.698C3104.4 322.831 3095.05 333.07 3083.11 340.49C3071.09 347.835 3057.06 351.545 3040.96 351.545C3024.86 351.545 3011.06 347.835 2998.89 340.49C2986.87 333.144 2977.52 322.831 2970.85 309.698C2964.17 296.342 2960.83 280.761 2960.83 262.879C2960.83 244.998 2964.17 229.565 2970.85 216.581C2977.6 203.448 2986.95 193.283 2998.89 186.086C3011.06 178.888 3025.16 175.327 3040.96 175.327C3056.77 175.327 3071.09 178.888 3083.11 186.086C3095.13 193.283 3104.48 203.448 3111.15 216.581C3117.76 229.565 3121.17 244.998 3121.17 262.879C3121.17 280.761 3117.76 296.342 3111.15 309.698Z" fill="#181D2F"/>
  <path d="M3443.86 13.2061V156.332C3435.77 147.874 3426.64 140.677 3416.33 134.815C3397.63 123.982 3377.23 118.492 3355.19 118.492C3333.15 118.492 3311.34 124.057 3291.6 135.038C3272.01 146.093 3256.14 162.268 3243.89 183.711C3231.87 205.08 3225.94 231.197 3225.94 262.063C3225.94 292.929 3231.87 320.456 3243.6 342.27C3255.39 364.01 3271.2 380.481 3290.71 391.685C3310.52 402.74 3331.97 408.231 3355.11 408.231C3378.26 408.231 3398.82 402.444 3417.29 390.869C3427.23 384.636 3435.99 377.217 3443.78 368.684V402.369H3513.67V13.1319C3513.67 7.4187 3509.07 2.8186 3503.36 2.8186H3454.02C3448.31 2.8186 3443.71 7.4187 3443.71 13.1319L3443.86 13.2061ZM3443.86 275.418C3443.86 289.442 3440.44 301.907 3433.54 312.739C3426.86 323.424 3418.03 331.882 3407.13 337.966C3396.15 344.05 3384.27 347.167 3371.36 347.167C3351.11 347.167 3333.75 340.192 3319.5 326.392C3305.18 312.591 3298.13 291.074 3298.13 261.989C3298.13 232.903 3305.25 211.312 3319.5 197.808C3333.82 184.156 3351.11 177.256 3371.36 177.256C3383.76 177.256 3395.4 180.224 3406.31 186.234C3417.44 192.021 3426.49 200.034 3433.32 210.422C3440.44 220.735 3443.93 232.829 3443.93 246.704V275.344L3443.86 275.418Z" fill="#181D2F"/>
  <path d="M3829.01 188.163C3816.99 166.275 3799.92 149.21 3777.67 136.893C3755.63 124.651 3729.36 118.492 3699.02 118.492C3668.67 118.492 3643.44 124.651 3620.66 136.893C3597.89 148.987 3580 165.904 3567.17 187.644C3554.48 209.384 3548.17 234.685 3548.17 263.621C3548.17 292.558 3554.48 316.895 3566.95 338.783C3579.71 360.671 3597.29 377.811 3619.92 390.053C3642.48 402.37 3668.89 408.454 3699.09 408.454C3721.28 408.454 3741.09 405.857 3758.37 400.589C3775.81 395.173 3790.65 387.901 3802.89 378.998C3815.06 369.872 3824.48 359.781 3831.16 348.8C3838.06 337.522 3841.99 326.095 3843.11 314.372H3773.73C3773.21 318.972 3771.51 323.498 3768.47 328.024C3765.72 332.55 3761.34 336.854 3755.48 340.861C3749.84 344.719 3742.5 347.835 3733.52 350.061C3724.54 352.287 3713.86 353.474 3701.47 353.474C3683.29 353.474 3667.85 349.838 3655.09 342.641C3642.63 335.296 3633.06 324.76 3626.53 311.108C3622.89 303.243 3620.22 294.562 3618.66 285.065H3846C3846.3 283.135 3846.59 280.093 3846.74 275.864C3846.89 271.709 3846.97 267.702 3846.97 264.067C3846.97 235.13 3841.03 209.829 3828.94 188.089L3829.01 188.163ZM3619.18 236.02C3620.89 228.007 3623.41 220.661 3626.82 213.984C3633.65 200.628 3643.29 190.463 3655.61 183.489C3668.15 176.292 3682.92 172.656 3699.83 172.656C3716.75 172.656 3731.07 175.995 3742.2 182.673C3753.33 189.128 3761.64 197.735 3767.13 208.419C3771.58 217.026 3774.1 226.3 3774.92 236.02H3619.18Z" fill="#181D2F"/>
</svg>
