<svg width="472" height="472" viewBox="0 0 472 472" fill="none" xmlns="http://www.w3.org/2000/svg">
<path d="M471.212 235.606C471.212 300.693 444.819 359.594 402.207 402.207C359.594 444.888 300.693 471.211 235.606 471.211C170.519 471.211 111.617 444.819 69.005 402.207C64.4688 397.671 60.1387 392.997 56.015 388.117C43.2999 373.203 32.4406 356.708 23.7807 338.907C8.52265 307.772 0 272.72 0 235.675C0 105.5 105.501 0 235.675 0C300.762 0 359.663 26.3923 402.276 69.0048C444.957 111.617 471.28 170.519 471.28 235.606H471.212Z" fill="#7F56D9"></path>
<path d="M388.737 280.213L347.98 320.969L243.511 216.5C239.112 212.101 231.964 212.101 227.635 216.5L55.9472 388.187C43.2322 373.273 32.3728 356.778 23.7129 338.977L195.813 166.877C217.737 144.952 253.339 144.952 275.333 166.877L388.737 280.281V280.213Z" fill="white"></path>
</svg>
